<svg xmlns="http://www.w3.org/2000/svg" width="600" height="400" viewBox="0 0 600 400">
  <!-- Gato -->
  <g id="cat">
    <!-- Body -->
    <ellipse cx="100" cy="250" rx="50" ry="60" fill="#8a4b08"/>
    <!-- Head -->
    <circle cx="100" cy="190" r="40" fill="#8a4b08"/>
    <!-- Ears -->
    <polygon points="70,160 90,140 80,180" fill="#8a4b08"/>
    <polygon points="130,160 110,140 120,180" fill="#8a4b08"/>
    <!-- Eyes -->
    <circle cx="85" cy="185" r="8" fill="#fff"/>
    <circle cx="115" cy="185" r="8" fill="#fff"/>
    <circle cx="85" cy="185" r="4" fill="#000"/>
    <circle cx="115" cy="185" r="4" fill="#000"/>
    <!-- Nose -->
    <polygon points="95,200 105,200 100,210" fill="#000"/>
    <!-- Mouth -->
    <path d="M90,210 Q100,220 110,210" stroke="#000" stroke-width="2" fill="none"/>
    <!-- Whiskers -->
    <line x1="60" y1="200" x2="90" y2="200" stroke="#000" stroke-width="2"/>
    <line x1="110" y1="200" x2="140" y2="200" stroke="#000" stroke-width="2"/>
    <line x1="60" y1="205" x2="90" y2="205" stroke="#000" stroke-width="2"/>
    <line x1="110" y1="205" x2="140" y2="205" stroke="#000" stroke-width="2"/>
  </g>
  
  <!-- Cachorro -->
  <g id="dog">
    <!-- Body -->
    <ellipse cx="300" cy="250" rx="60" ry="80" fill="#3f3d56"/>
    <!-- Head -->
    <circle cx="300" cy="150" r="50" fill="#3f3d56"/>
    <!-- Ears -->
    <ellipse cx="260" cy="120" rx="20" ry="40" fill="#3f3d56"/>
    <ellipse cx="340" cy="120" rx="20" ry="40" fill="#3f3d56"/>
    <!-- Eyes -->
    <circle cx="280" cy="140" r="10" fill="#fff"/>
    <circle cx="320" cy="140" r="10" fill="#fff"/>
    <circle cx="280" cy="140" r="5" fill="#000"/>
    <circle cx="320" cy="140" r="5" fill="#000"/>
    <!-- Nose -->
    <circle cx="300" cy="170" r="8" fill="#000"/>
    <!-- Mouth -->
    <path d="M290,180 Q300,190 310,180" stroke="#000" stroke-width="2" fill="none"/>
  </g>

  <!-- Pássaro -->
  <g id="bird">
    <!-- Body -->
    <ellipse cx="500" cy="100" rx="30" ry="20" fill="#14a6b8"/>
    <!-- Head -->
    <circle cx="500" cy="80" r="15" fill="#14a6b8"/>
    <!-- Beak -->
    <polygon points="515,85 530,80 515,75" fill="#ffb300"/>
    <!-- Eyes -->
    <circle cx="495" cy="75" r="3" fill="#fff"/>
    <circle cx="495" cy="75" r="1.5" fill="#000"/>
    <!-- Wings -->
    <ellipse cx="480" cy="100" rx="10" ry="5" fill="#14a6b8"/>
    <ellipse cx="520" cy="100" rx="10" ry="5" fill="#14a6b8"/>
  </g>

  <!-- Peixe -->
  <g id="fish">
    <!-- Body -->
    <ellipse cx="400" cy="350" rx="40" ry="20" fill="#ff6347"/>
    <!-- Tail -->
    <polygon points="440,350 460,340 460,360" fill="#ff6347"/>
    <!-- Eye -->
    <circle cx="380" cy="345" r="5" fill="#fff"/>
    <circle cx="380" cy="345" r="2.5" fill="#000"/>
    <!-- Fin -->
    <polygon points="400,330 410,345 400,355" fill="#ff6347"/>
  </g>
</svg>
